<svg width="81" height="69" viewBox="0 0 81 69" fill="none" xmlns="http://www.w3.org/2000/svg">
<path d="M75.6543 30.0053H73.7498V18.5621C73.7498 13.8831 69.9409 10.0906 65.2783 10.0906H63.5216L63.538 5.83838C63.538 2.68617 60.9768 0.125 57.8246 0.125H7.02806C3.23555 0.125 0.132597 3.1787 0.0833435 6.97121C0.0833435 7.00404 0.0833435 7.03688 0.0833435 7.06971V63.12C0.0833435 66.2722 2.64451 68.8333 5.79672 68.8333H65.2947C69.9738 68.8333 73.7663 65.0244 73.7663 60.3618V48.9022H75.6707C78.1334 48.9022 80.1363 46.8992 80.1363 44.4365V34.471C80.1199 32.0083 78.117 30.0053 75.6543 30.0053ZM7.02806 4.06526H57.8246C58.7933 4.06526 59.5977 4.85332 59.5977 5.82196L59.5813 10.0906H7.02806C5.36986 10.0906 4.02361 8.74433 4.02361 7.08613C4.02361 5.42794 5.36986 4.06526 7.02806 4.06526ZM69.8096 60.3454C69.8096 62.8409 67.7738 64.8767 65.2783 64.8767H5.78031C4.81166 64.8767 4.00719 64.0886 4.00719 63.1035V13.3413C4.92658 13.7846 5.94448 14.0308 7.02806 14.0308H65.2783C67.7738 14.0308 69.8096 16.0666 69.8096 18.5621V30.0053H56.3634C53.9008 30.0053 51.8978 32.0083 51.8978 34.471V44.4365C51.8978 46.8992 53.9008 48.9022 56.3634 48.9022H69.8096V60.3454V60.3454ZM76.1797 44.4365C76.1797 44.7321 75.9498 44.9619 75.6543 44.9619H56.3798C56.0843 44.9619 55.8545 44.7321 55.8545 44.4365V34.471C55.8545 34.1919 56.0843 33.9456 56.3798 33.9456H75.6543C75.9334 33.9456 76.1797 34.1754 76.1797 34.471V44.4365Z" fill="black"/>
</svg>
